<svg xmlns="http://www.w3.org/2000/svg" xmlns:xlink="http://www.w3.org/1999/xlink" width="140" height="40" viewBox="0 0 140 40">
    <defs>
        <path id="fdn7096ema" d="M0.061 0.127L9.393 0.127 9.393 9.316 0.061 9.316z"/>
    </defs>
    <g fill="none" fill-rule="evenodd">
        <path fill="#F14A42" d="M36.283.265L31.091 19.69C27.958 31.463 20.263 37.892 3.646 38.884l-.7-7.992c6.964-.915 10.837-3.692 12.16-8.511H2.216L0 .265h36.283zm20.218 11.938l.712 10.755 6.108-10.755h8.845l-12.63 19.75c-3.26 5.096-6.333 6.82-10.83 6.82-2.52 0-4.335-.505-5.826-1.386l-.245-.15 3.298-6.26c1.148.801 2.2 1.15 3.184 1.195l.226.005h.015c.18 0 .35-.042.503-.116.15-.072-1.667-19.327-1.716-19.848v-.01H56.5zm28.144-.488c6.446 0 10.231 4.198 10.231 9.52 0 6.258-5.134 11.916-12.254 11.916-6.446 0-10.231-4.197-10.231-9.518 0-6.259 5.134-11.918 12.254-11.918zm50.48.488l-5.471 20.461h-8.507l5.471-20.461h8.507zm-26.607 0l1.31 4.197 3.449-4.197h9.256l-9.481 10.38 4.085 10.081h-8.657l-1.387-4.347-3.56 4.347h-9.257l9.594-10.53-4.01-9.931h8.658zM84.12 18.648c-2.135 0-3.71 2.174-3.71 4.61 0 1.724 1.087 2.96 2.736 2.96 2.136 0 3.71-2.173 3.71-4.61 0-1.723-1.087-2.96-2.736-2.96zM133.827.154c2.538 0 4.232 2.057 3.785 4.594-.448 2.538-2.868 4.595-5.405 4.595-2.537 0-4.231-2.057-3.784-4.595.448-2.537 2.867-4.594 5.404-4.594z"/>
        <g transform="translate(128.29 .027)"/>
    </g>
</svg>
